HIERARCHY
ROOT Hips
{
	OFFSET 49.246399 13.692984 99.974800
	CHANNELS 6 Xposition Yposition Zposition Xrotation Yrotation Zrotation
	JOINT spine
	{
		OFFSET 0.000000 -0.507026 8.817047
		CHANNELS 3 Xrotation Yrotation Zrotation
		JOINT spine1
		{
			OFFSET 0.000000 -0.000001 10.776604
			CHANNELS 3 Xrotation Yrotation Zrotation
			JOINT spine2
			{
				OFFSET 0.000000 -0.000002 10.325897
				CHANNELS 3 Xrotation Yrotation Zrotation
				JOINT Neck
				{
					OFFSET 0.000000 -1.263955 26.511002
					CHANNELS 3 Xrotation Yrotation Zrotation
					JOINT Head
					{
						OFFSET 0.000000 -0.000001 8.009659
						CHANNELS 3 Xrotation Yrotation Zrotation
						End Site
						{
							OFFSET 0.000000 6.393856 19.387894
						}
					}
				}
				JOINT RightShoulder
				{
					OFFSET -4.347950 0.605420 11.151199
					CHANNELS 3 Xrotation Yrotation Zrotation
					JOINT RightArm
					{
						OFFSET 0.000000 -0.000003 14.625793
						CHANNELS 3 Xrotation Yrotation Zrotation
						JOINT RightArmRoll
						{
							OFFSET 0.000000 -0.000001 7.383408
							CHANNELS 3 Xrotation Yrotation Zrotation
							JOINT RightForeArm
							{
								OFFSET 0.000000 -0.000004 21.505203
								CHANNELS 3 Xrotation Yrotation Zrotation
								JOINT RightForeArmRoll
								{
									OFFSET 0.000000 -0.000001 8.285324
									CHANNELS 3 Xrotation Yrotation Zrotation
									JOINT RightHand
									{
										OFFSET 0.000000 -0.000003 16.626801
										CHANNELS 3 Xrotation Yrotation Zrotation
										End Site
										{
											OFFSET 0.000000 0.000000 0.100006
										}
									}
								}
							}
						}
					}
				}
				JOINT LeftShoulder
				{
					OFFSET 4.347950 0.605420 11.151199
					CHANNELS 3 Xrotation Yrotation Zrotation
					JOINT LeftArm
					{
						OFFSET 0.000000 -0.000003 14.625793
						CHANNELS 3 Xrotation Yrotation Zrotation
						JOINT LeftArmRoll
						{
							OFFSET 0.000000 -0.000001 7.383392
							CHANNELS 3 Xrotation Yrotation Zrotation
							JOINT LeftForeArm
							{
								OFFSET 0.000000 -0.000004 21.505203
								CHANNELS 3 Xrotation Yrotation Zrotation
								JOINT LeftForeArmRoll
								{
									OFFSET 0.000000 -0.000001 8.285324
									CHANNELS 3 Xrotation Yrotation Zrotation
									JOINT LeftHand
									{
										OFFSET 0.000000 -0.000003 16.626801
										CHANNELS 3 Xrotation Yrotation Zrotation
										End Site
										{
											OFFSET 0.000000 0.000000 0.100006
										}
									}
								}
							}
						}
					}
				}
			}
		}
	}
	JOINT RightUpLeg
	{
		OFFSET -7.815102 1.202170 -1.433090
		CHANNELS 3 Xrotation Yrotation Zrotation
		JOINT RightUpLegRoll
		{
			OFFSET 0.000000 -0.000003 19.495903
			CHANNELS 3 Xrotation Yrotation Zrotation
			JOINT RightLeg
			{
				OFFSET 0.000000 0.000004 -24.142700
				CHANNELS 3 Xrotation Yrotation Zrotation
				JOINT RightLegRoll
				{
					OFFSET 0.000000 -0.000004 24.221703
					CHANNELS 3 Xrotation Yrotation Zrotation
					JOINT RightFoot
					{
						OFFSET 0.000000 -0.000004 20.160500
						CHANNELS 3 Xrotation Yrotation Zrotation
						JOINT RightToeBase
						{
							OFFSET 0.000000 -0.000003 16.853195
							CHANNELS 3 Xrotation Yrotation Zrotation
							End Site
							{
								OFFSET 0.007145 0.940779 8.161865
							}
						}
					}
				}
			}
		}
	}
	JOINT LeftUpLeg
	{
		OFFSET 7.815102 1.202170 -1.433090
		CHANNELS 3 Xrotation Yrotation Zrotation
		JOINT LeftUpLegRoll
		{
			OFFSET 0.000000 -0.000003 19.496002
			CHANNELS 3 Xrotation Yrotation Zrotation
			JOINT LeftLeg
			{
				OFFSET 0.000000 -0.000004 24.142601
				CHANNELS 3 Xrotation Yrotation Zrotation
				JOINT LeftLegRoll
				{
					OFFSET 0.000000 -0.000004 24.445602
					CHANNELS 3 Xrotation Yrotation Zrotation
					JOINT LeftFoot
					{
						OFFSET 0.000000 -0.000004 19.936600
						CHANNELS 3 Xrotation Yrotation Zrotation
						JOINT LeftToeBase
						{
							OFFSET 0.000000 -0.000003 16.853195
							CHANNELS 3 Xrotation Yrotation Zrotation
							End Site
							{
								OFFSET -0.032013 0.940780 8.161865
							}
						}
					}
				}
			}
		}
	}
}
MOTION
Frames: 8
Frame Time: 0.041667
47.850105 0.196579 99.760811 -1.900789 -1.884313 3.373686 -1.738844 0.119443 0.116410 0.524882 0.232181 0.235323 2.169958 0.235330 0.232420 21.296571 10.685349 -1.029465 -3.844220 -5.036990 -0.046807 -5.015676 -57.319583 -5.803426 -25.853058 -120.144052 -7.359064 -0.000001 -0.000000 -0.000000 3.289853 -9.597065 -0.142304 0.000002 0.000008 -3.007830 -5.000231 -7.998801 0.000130 -8.741351 63.168212 10.623681 -35.868930 113.893814 29.431415 -0.000005 -0.000004 0.000003 8.222492 12.035097 -0.355853 -0.000004 -0.000008 3.007500 -5.000179 7.998722 -0.000170 -3.103603 -175.197016 1.907113 -179.999991 0.000005 -1.031985 164.465436 -2.933005 -1.043877 -0.000006 -0.000001 0.250501 74.654753 6.520330 2.807550 25.456977 -7.347525 0.000005 -1.490821 178.872382 3.661005 -0.000005 -0.000004 -1.076320 -11.540586 1.532856 0.664633 -0.000006 -0.000004 -0.171304 72.502731 -6.330158 -3.482920 25.456906 7.344947 0.000004 
47.844505 0.191156 99.755898 -1.900660 -1.887242 3.369023 -1.735674 0.119467 0.115916 0.531216 0.232294 0.234406 2.176288 0.235406 0.231507 21.299103 10.698936 -1.028131 -3.837047 -5.046782 -0.043417 -4.999902 -57.305485 -5.783385 -25.895539 -120.170977 -7.421966 -0.000001 0.000000 -0.000000 3.299690 -9.603211 -0.141513 -0.000000 0.000007 -3.007830 -5.000230 -7.998801 0.000130 -8.750501 63.175801 10.634726 -35.947047 113.907782 29.502196 -0.000002 -0.000004 0.000002 8.173570 12.031282 -0.350894 -0.000004 -0.000008 3.007500 -5.000179 7.998721 -0.000170 -3.113661 -175.194079 1.902809 -179.999991 0.000005 -1.031986 164.457022 -2.925172 -1.044173 -0.000007 -0.000001 0.250501 74.652622 6.517827 2.815334 25.456974 -7.347525 0.000004 -1.493750 178.875387 3.658945 -0.000005 -0.000004 -1.076180 -11.542408 1.536697 0.664710 -0.000005 -0.000004 -0.171336 72.502151 -6.331572 -3.477871 25.456907 7.344948 0.000004 
47.853703 0.183374 99.764519 -1.900614 -1.890190 3.364497 -1.732534 0.119507 0.115389 0.537507 0.232417 0.233458 2.182578 0.235490 0.230567 21.301943 10.712505 -1.026905 -3.829898 -5.056622 -0.040138 -4.984054 -57.291596 -5.763259 -25.937211 -120.198816 -7.483737 -0.000000 -0.000000 -0.000001 3.309446 -9.609189 -0.140712 0.000003 0.000008 -3.007831 -5.000230 -7.998802 0.000133 -8.759633 63.183601 10.645751 -36.025703 113.921948 29.573452 -0.000003 -0.000004 0.000002 8.124037 12.027476 -0.345897 -0.000004 -0.000008 3.007500 -5.000178 7.998720 -0.000169 -3.123505 -175.190131 1.898197 -179.999991 0.000005 -1.031985 164.448853 -2.916381 -1.045171 -0.000007 -0.000001 0.250501 74.650464 6.515245 2.823310 25.456982 -7.347526 0.000005 -1.496440 178.877381 3.657084 -0.000005 -0.000005 -1.076020 -11.543930 1.540363 0.664746 -0.000005 -0.000004 -0.171355 72.501563 -6.332892 -3.473008 25.456901 7.344946 0.000005 
47.854603 0.203716 99.758507 -1.900634 -1.893158 3.360068 -1.729404 0.119558 0.114837 0.543768 0.232544 0.232491 2.188838 0.235579 0.229605 21.304991 10.726148 -1.025815 -3.822763 -5.066492 -0.036936 -4.968122 -57.277806 -5.743058 -25.979565 -120.225782 -7.546089 -0.000001 -0.000000 -0.000000 3.319150 -9.615048 -0.139904 0.000001 0.000006 -3.007831 -5.000230 -7.998800 0.000132 -8.768733 63.191496 10.656754 -36.105804 113.935410 29.646276 -0.000002 -0.000004 0.000002 8.074070 12.023773 -0.340889 -0.000003 -0.000008 3.007500 -5.000180 7.998722 -0.000170 -3.133195 -175.187167 1.893451 -179.999991 0.000005 -1.032996 164.440752 -2.907593 -1.046177 -0.000006 -0.000001 0.250501 74.648285 6.512635 2.831285 25.456974 -7.347526 0.000005 -1.498960 178.879376 3.655342 -0.000005 -0.000004 -1.075860 -11.545350 1.543912 0.664756 -0.000006 -0.000004 -0.171365 72.500853 -6.334218 -3.468154 25.456907 7.344948 0.000004 
47.846100 0.195806 99.761597 -1.900679 -1.896136 3.355688 -1.726282 0.119617 0.114271 0.550011 0.232676 0.231511 2.195079 0.235670 0.228631 21.308046 10.739883 -1.024784 -3.815637 -5.076372 -0.033777 -4.952147 -57.264005 -5.722816 -26.021865 -120.252748 -7.608279 0.000000 -0.000000 -0.000000 3.328823 -9.620835 -0.139089 0.000001 0.000008 -3.007829 -5.000232 -7.998801 0.000132 -8.777820 63.199481 10.667751 -36.184877 113.949835 29.717894 -0.000003 -0.000003 0.000003 8.023857 12.020068 -0.335859 -0.000001 -0.000008 3.007500 -5.000179 7.998721 -0.000171 -3.142791 -175.184216 1.888602 -179.999991 0.000005 -1.032997 164.432652 -2.899779 -1.046440 -0.000006 -0.000001 0.250501 74.646092 6.509971 2.839450 25.456976 -7.347526 0.000005 -1.501379 178.881384 3.653677 -0.000005 -0.000004 -1.075680 -11.546670 1.547403 0.664753 -0.000004 -0.000004 -0.171370 72.500136 -6.335512 -3.463395 25.456904 7.344947 0.000004 
47.835804 0.229730 99.758911 -1.900745 -1.899105 3.351317 -1.723163 0.119676 0.113702 0.556251 0.232808 0.230529 2.201319 0.235761 0.227655 21.311204 10.753614 -1.023782 -3.808515 -5.086261 -0.030628 -4.936198 -57.250314 -5.702593 -26.064272 -120.279768 -7.670541 -0.000001 -0.000000 -0.000001 3.338484 -9.626602 -0.138273 0.000001 0.000008 -3.007831 -5.000231 -7.998801 0.000132 -8.786888 63.207383 10.678710 -36.264999 113.963434 29.790707 -0.000001 -0.000004 0.000001 7.973588 12.016351 -0.330834 -0.000003 -0.000007 3.007500 -5.000178 7.998720 -0.000171 -3.152364 -175.180268 1.883669 -179.999991 0.000005 -1.032996 164.424674 -2.890993 -1.047435 -0.000006 -0.000001 0.250501 74.643879 6.507284 2.847716 25.456974 -7.347526 0.000006 -1.503787 178.883378 3.652032 -0.000005 -0.000004 -1.075510 -11.547989 1.550874 0.664745 -0.000005 -0.000004 -0.171373 72.499419 -6.336807 -3.458633 25.456911 7.344946 0.000004 
47.835705 0.221786 99.758392 -1.900788 -1.902084 3.346926 -1.720044 0.119732 0.113139 0.562499 0.232938 0.229552 2.207569 0.235851 0.226685 21.314261 10.767256 -1.022707 -3.801389 -5.096142 -0.027452 -4.920266 -57.236521 -5.682396 -26.106448 -120.306747 -7.732689 -0.000001 -0.000000 -0.000001 3.348167 -9.632409 -0.137457 0.000003 0.000006 -3.007829 -5.000230 -7.998804 0.000131 -8.795990 63.215375 10.689722 -36.343700 113.977880 29.861976 -0.000003 -0.000004 0.000003 7.923454 12.012722 -0.325836 -0.000005 -0.000008 3.007500 -5.000178 7.998722 -0.000170 -3.161993 -175.177318 1.878846 -179.999991 0.000005 -1.032997 164.416669 -2.882208 -1.048415 -0.000006 -0.000001 0.250501 74.641701 6.504644 2.855885 25.456976 -7.347525 0.000005 -1.506238 178.886384 3.650320 -0.000005 -0.000004 -1.075340 -11.549408 1.554373 0.664747 -0.000006 -0.000004 -0.171378 72.498701 -6.338104 -3.453875 25.456906 7.344946 0.000004 
47.830105 0.214360 99.759209 -1.900781 -1.905042 3.342469 -1.716903 0.119780 0.112594 0.568769 0.233063 0.228590 2.213839 0.235938 0.225730 21.317212 10.780906 -1.021584 -3.794246 -5.105992 -0.024216 -4.904401 -57.222720 -5.662280 -26.147796 -120.334642 -7.793880 -0.000002 -0.000000 -0.000001 3.357882 -9.638308 -0.136643 0.000001 0.000007 -3.007831 -5.000231 -7.998801 0.000132 -8.805098 63.223168 10.700727 -36.423435 113.991513 29.934438 -0.000004 -0.000004 0.000002 7.873613 12.008973 -0.320857 -0.000002 -0.000008 3.007500 -5.000180 7.998721 -0.000170 -3.171719 -175.174367 1.874142 -179.999991 0.000005 -1.032996 164.408486 -2.873421 -1.049415 -0.000006 -0.000001 0.250501 74.639611 6.501995 2.863849 25.456976 -7.347526 0.000005 -1.508806 178.888378 3.648547 -0.000005 -0.000004 -1.075170 -11.550830 1.557962 0.664765 -0.000005 -0.000004 -0.171391 72.497998 -6.339429 -3.449021 25.456907 7.344948 0.000005 
